<svg xmlns="http://www.w3.org/2000/svg" width="180.987" height="46.789" viewBox="0 0 180.987 46.789"><defs><style>.a{fill:#f7f5eb;}</style></defs><g transform="translate(-234.604 -172.72)"><path class="a" d="M472.19,203.007a3.013,3.013,0,0,0-.127,2.307c.411,1.434,3.7,4.632,4.991,7.018l1.819-3.658,1.229,2.654,2.2-1.931.186,4.081c2.146-1.661,6.446-3.257,7.4-4.4a3.016,3.016,0,0,0,.816-2.161c10.354-4.139,14.888,2.524,14.888,2.524-7.017-4.846-10.343,2.247-10.343,2.247-13.794-.7-16.872,7.823-16.872,7.823s.629-9.039-12.271-13.975c0,0-.175-7.831-8.552-6.235C457.552,199.3,464.392,195.037,472.19,203.007Z" transform="translate(-90)"/><path class="a" d="M253.108,206.3a2.471,2.471,0,0,0,.855,1.691c.88.851,4.527,1.774,6.424,2.941l-.207-3.345,1.961,1.382.769-2.273,1.8,2.824c.844-2.06,3.245-4.957,3.454-6.163a2.473,2.473,0,0,0-.306-1.87c5.66-7.186,11.614-4.31,11.614-4.31-6.973-.566-6.428,5.837-6.428,5.837-10.088,5.159-8.781,12.477-8.781,12.477s-3.259-6.681-14.449-4.9c0,0-3.335-5.493-8.633-.924C241.187,209.669,244.3,203.836,253.108,206.3Z"/><path class="a" d="M432.966,188.732a.807.807,0,0,0,.384.767c.477.379,2.692.752,3.782,1.262l.177-1.539,1.11.608.694-1.059.879,1.275c.722-.962,2.5-2.332,2.745-2.891a.806.806,0,0,0-.021-.857c4.23-3.4,7.721-2.156,7.721-2.156-4.346-.159-4.59,2.784-4.59,2.784-6.837,2.525-6.685,5.878-6.685,5.878s-1.442-3.031-8.663-2.047c0,0-1.6-2.483-5.36-.3C425.138,190.457,427.637,187.724,432.966,188.732Z" transform="translate(-90)"/><path class="a" d="M491.872,181.632a.437.437,0,0,0-.1.452c.071.32.873,1.227,1.156,1.81l.6-.585.259.631.65-.208-.064.832c.628-.158,1.839-.129,2.13-.28s.282-.367.282-.367c2.923.012,3.965,1.714,3.965,1.714-1.766-1.54-2.866-.39-2.866-.39-3.72-1.26-4.793.2-4.793.2s.424-1.759-2.935-3.794c0,0,.172-1.582-2.144-1.943C488.007,179.7,489.981,179.4,491.872,181.632Z" transform="translate(-90)"/><path class="a" d="M244.276,173.628a.435.435,0,0,1-.044.46c-.166.283-1.207.9-1.655,1.369l-.388-.739-.44.522-.555-.4-.194.811c-.55-.343-1.711-.686-1.941-.919a.434.434,0,0,1-.156-.435c-2.786-.884-4.3.417-4.3.417,2.153-.925,2.848.507,2.848.507,3.927-.06,4.5,1.655,4.5,1.655s.135-1.8,3.956-2.713c0,0,.321-1.559,2.636-1.193C248.545,172.974,246.758,172.086,244.276,173.628Z"/><path class="a" d="M294.017,179.706a1.6,1.6,0,0,0-.2,1.211c.135.781,1.69,2.656,2.236,3.99l1.169-1.828.5,1.471,1.27-.9-.134,2.165c1.228-.755,3.589-1.353,4.159-1.9a1.6,1.6,0,0,0,.554-1.1c5.7-1.6,7.718,2.179,7.718,2.179-3.43-2.958-5.589.6-5.589.6-7.244-1.153-9.354,3.171-9.354,3.171s.846-4.737-5.685-8.077c0,0,.353-4.145-4.161-3.779C286.5,176.916,290.353,175.054,294.017,179.706Z"/></g></svg>