<svg xmlns="http://www.w3.org/2000/svg" xmlns:xlink="http://www.w3.org/1999/xlink" width="419.933" height="115.765" viewBox="0 0 419.933 115.765"><defs><style>.a{fill:#090316;opacity:0.45;}.b{fill:#fc8905;}.c{fill:url(#a);}.d{fill:url(#b);}.e{fill:url(#c);}.f{fill:url(#d);}.g{fill:url(#e);}.h{fill:url(#f);}.i{fill:url(#g);}.j{fill:url(#h);}.k{fill:url(#i);}.l{fill:url(#j);}.m{fill:url(#k);}.n{fill:url(#l);}.o{fill:url(#m);}.p{fill:url(#n);}.q{fill:url(#o);}.r{fill:url(#p);}.s{fill:url(#q);}.t{fill:url(#r);}.u{fill:url(#s);}.v{fill:url(#t);}.w{fill:url(#u);}.x{fill:url(#v);}.y{fill:url(#w);}.z{fill:url(#x);}.aa{fill:url(#y);}.ab{fill:url(#z);}.ac{fill:url(#aa);}.ad{fill:url(#ab);}.ae{fill:url(#ac);}.af{fill:url(#ad);}.ag{fill:url(#ae);}.ah{fill:url(#af);}.ai{fill:url(#ag);}.aj{fill:#6f1f03;}.ak{fill:url(#ah);}.al{fill:url(#ai);}.am{fill:#311e56;}.an{fill:#5a449e;}.ao{fill:url(#aj);}.ap{fill:url(#ak);}.aq{fill:url(#al);}.ar{fill:url(#am);}.as{fill:url(#an);}.at{fill:url(#ao);}.au{fill:url(#ap);}.av{fill:url(#aq);}.aw{fill:url(#ar);}.ax{fill:url(#as);}.ay{fill:url(#at);}.az{fill:url(#au);}.ba{fill:url(#av);}.bb{fill:url(#aw);}.bc{fill:url(#ax);}.bd{fill:url(#ay);}.be{fill:url(#az);}.bf{fill:url(#ba);}.bg{fill:url(#bb);}.bh{fill:url(#bc);}.bi{fill:url(#bd);}.bj{fill:url(#be);}.bk{fill:url(#bf);}.bl{fill:url(#bg);}.bm{fill:url(#bh);}.bn{fill:url(#bi);}.bo{fill:url(#bj);}.bp{fill:url(#bk);}.bq{fill:url(#bl);}.br{fill:url(#bm);}.bs{fill:url(#bn);}.bt{fill:url(#bo);}.bu{fill:url(#bp);}.bv{fill:url(#bq);}.bw{fill:url(#br);}.bx{fill:url(#bs);}.by{fill:url(#bt);}.bz{fill:url(#bu);}.ca{fill:url(#bv);}.cb{fill:url(#bw);}.cc{fill:url(#bx);}.cd{fill:url(#by);}.ce{fill:url(#bz);}.cf{fill:url(#ca);}.cg{fill:url(#cb);}.ch{fill:url(#cc);}.ci{fill:url(#cd);}.cj{fill:url(#ce);}.ck{fill:url(#cf);}.cl{fill:url(#cg);}.cm{fill:url(#ch);}.cn{fill:url(#ci);}.co{fill:url(#cj);}.cp{fill:url(#ck);}.cq{fill:url(#cl);}.cr{fill:url(#cm);}.cs{fill:url(#cn);}.ct{fill:url(#co);}.cu{fill:url(#cp);}.cv{fill:url(#cq);}.cw{fill:url(#cr);}.cx{fill:url(#cs);}.cy{fill:url(#ct);}.cz{fill:url(#cu);}.da{fill:url(#cv);}.db{fill:url(#cw);}.dc{fill:url(#cx);}.dd{fill:url(#cy);}.de{fill:url(#cz);}.df{fill:url(#da);}.dg{fill:url(#db);}.dh{fill:url(#dc);}.di{fill:url(#dd);}.dj{fill:url(#de);}.dk{fill:url(#df);}.dl{fill:url(#dg);}.dm{fill:url(#dh);}.dn{fill:url(#di);}.do{fill:url(#dj);}.dp{fill:url(#dk);}.dq{fill:url(#dl);}.dr{fill:url(#dm);}.ds{fill:url(#dn);}.dt{fill:url(#do);}.du{fill:url(#dp);}.dv{fill:url(#dq);}.dw{fill:url(#dr);}.dx{fill:url(#ds);}.dy{fill:url(#dt);}.dz{fill:url(#du);}.ea{fill:url(#dv);}.eb{fill:url(#dw);}.ec{fill:url(#dx);}.ed{fill:url(#dy);}.ee{fill:url(#dz);}.ef{fill:url(#ea);}.eg{fill:url(#eb);}.eh{fill:url(#ec);}.ei{fill:url(#ed);}.ej{fill:url(#ee);}.ek{fill:url(#ef);}.el{fill:url(#eg);}.em{fill:url(#eh);}.en{fill:url(#ei);}.eo{fill:url(#ej);}.ep{fill:url(#ek);}.eq{fill:url(#el);}.er{fill:url(#em);}.es{fill:url(#en);}.et{fill:url(#eo);}.eu{fill:url(#ep);}.ev{fill:url(#eq);}.ew{fill:url(#er);}.ex{fill:url(#es);}.ey{fill:url(#et);}.ez{fill:url(#eu);}.fa{fill:url(#ev);}.fb{fill:url(#ew);}.fc{fill:url(#ex);}.fd{fill:url(#ey);}.fe{fill:url(#ez);}.ff{fill:url(#fa);}.fg{fill:url(#fb);}.fh{fill:url(#fc);}.fi{fill:url(#fd);}.fj{fill:url(#fe);}.fk{fill:url(#ff);}.fl{fill:url(#fg);}.fm{fill:url(#fh);}.fn{fill:url(#fi);}.fo{fill:url(#fj);}.fp{fill:url(#fk);}.fq{fill:url(#fl);}.fr{fill:url(#fm);}.fs{fill:url(#fn);}</style><linearGradient id="a" x1="-17.453" y1="-1.032" x2="-17.971" y2="-1.224" gradientUnits="objectBoundingBox"><stop offset="0" stop-color="#992213" stop-opacity="0.702"/><stop offset="1" stop-color="#992213" stop-opacity="0"/></linearGradient><linearGradient id="b" x1="-17.753" y1="-0.686" x2="-18.94" y2="-1.048" gradientUnits="objectBoundingBox"><stop offset="0" stop-color="#992213" stop-opacity="0.702"/><stop offset="0.627" stop-color="#992213" stop-opacity="0"/></linearGradient><linearGradient id="c" x1="-530.34" y1="-676.477" x2="-531.333" y2="-676.477" xlink:href="#a"/><linearGradient id="d" x1="-648.42" y1="-295.177" x2="-649.404" y2="-295.177" xlink:href="#a"/><linearGradient id="e" x1="-596.651" y1="-325.477" x2="-597.637" y2="-325.477" xlink:href="#a"/><linearGradient id="f" x1="-648.202" y1="-252.868" x2="-649.183" y2="-252.868" xlink:href="#a"/><linearGradient id="g" x1="-461.178" y1="-910.434" x2="-462.181" y2="-910.434" xlink:href="#a"/><linearGradient id="h" x1="-552.128" y1="-1233.617" x2="-553.124" y2="-1233.617" xlink:href="#a"/><linearGradient id="i" x1="-496.247" y1="-3949.604" x2="-497.245" y2="-3949.604" xlink:href="#a"/><linearGradient id="j" x1="-278.762" y1="-215.301" x2="-279.751" y2="-215.301" xlink:href="#a"/><linearGradient id="k" x1="-711.972" y1="-241.65" x2="-712.95" y2="-241.65" xlink:href="#a"/><linearGradient id="l" x1="-15.778" y1="-0.859" x2="-16.743" y2="-0.859" xlink:href="#a"/><linearGradient id="m" x1="-402.498" y1="-288.794" x2="-403.507" y2="-288.794" xlink:href="#a"/><linearGradient id="n" x1="-425.606" y1="-384.822" x2="-426.613" y2="-384.822" xlink:href="#a"/><linearGradient id="o" x1="-482.09" y1="-594.307" x2="-483.094" y2="-594.307" xlink:href="#a"/><linearGradient id="p" x1="-702.34" y1="-210.597" x2="-703.315" y2="-210.597" xlink:href="#a"/><linearGradient id="q" x1="-738.157" y1="-197.941" x2="-739.13" y2="-197.941" xlink:href="#a"/><linearGradient id="r" x1="-532.297" y1="-2763.365" x2="-533.297" y2="-2763.365" xlink:href="#a"/><linearGradient id="s" x1="-12.071" y1="-0.592" x2="-12.805" y2="-1.568" xlink:href="#a"/><linearGradient id="t" x1="-12.599" y1="-1.31" x2="-11.637" y2="-1.31" gradientUnits="objectBoundingBox"><stop offset="0" stop-color="#992213" stop-opacity="0.6"/><stop offset="1" stop-color="#992213" stop-opacity="0"/></linearGradient><linearGradient id="u" x1="-39.683" y1="-9.906" x2="-39.683" y2="-10.892" xlink:href="#t"/><linearGradient id="v" x1="-9.724" y1="-2.569" x2="-9.724" y2="-1.553" gradientUnits="objectBoundingBox"><stop offset="0" stop-color="#ce480d"/><stop offset="0.795" stop-color="#ce480d" stop-opacity="0"/></linearGradient><linearGradient id="w" x1="-27.688" y1="-2.99" x2="-27.688" y2="-1.992" gradientUnits="objectBoundingBox"><stop offset="0" stop-color="#feb906" stop-opacity="0.8"/><stop offset="0.715" stop-color="#feb906" stop-opacity="0"/></linearGradient><linearGradient id="x" x1="-18.557" y1="-2.996" x2="-18.557" y2="-1.953" gradientUnits="objectBoundingBox"><stop offset="0" stop-color="#feb906" stop-opacity="0.8"/><stop offset="0.507" stop-color="#feb906" stop-opacity="0"/></linearGradient><linearGradient id="y" x1="-255.698" y1="-62.876" x2="-255.698" y2="-61.967" xlink:href="#w"/><linearGradient id="z" x1="-24.112" y1="-2.669" x2="-24.112" y2="-1.707" xlink:href="#w"/><linearGradient id="aa" x1="-22.768" y1="-3.317" x2="-22.768" y2="-2.305" xlink:href="#w"/><linearGradient id="ab" x1="-21.964" y1="-2.211" x2="-21.964" y2="-1.183" xlink:href="#w"/><linearGradient id="ac" x1="-10.964" y1="-3.115" x2="-11.963" y2="-3.115" gradientUnits="objectBoundingBox"><stop offset="0" stop-color="#feb906" stop-opacity="0.702"/><stop offset="1" stop-color="#feb906" stop-opacity="0.302"/></linearGradient><linearGradient id="ad" x1="0.025" y1="0.521" x2="1.024" y2="0.521" xlink:href="#ac"/><linearGradient id="ae" x1="-0.003" y1="0.4" x2="0.996" y2="0.4" xlink:href="#ac"/><linearGradient id="af" x1="0.234" y1="0.368" x2="1.232" y2="0.368" xlink:href="#ac"/><linearGradient id="ag" x1="-6.506" y1="-1.169" x2="-6.506" y2="-0.165" gradientUnits="objectBoundingBox"><stop offset="0.015" stop-color="#d777dd" stop-opacity="0.702"/><stop offset="1" stop-color="#d777dd" stop-opacity="0"/></linearGradient><linearGradient id="ah" x1="-37.073" y1="-3.041" x2="-37.073" y2="-4.006" gradientUnits="objectBoundingBox"><stop offset="0" stop-color="#491607" stop-opacity="0.8"/><stop offset="1" stop-color="#491607" stop-opacity="0"/></linearGradient><linearGradient id="ai" x1="-28.552" y1="-3.504" x2="-28.552" y2="-2.532" gradientUnits="objectBoundingBox"><stop offset="0.015" stop-color="#d777dd" stop-opacity="0.302"/><stop offset="1" stop-color="#d777dd" stop-opacity="0"/></linearGradient><linearGradient id="aj" x1="-11.341" y1="-3.23" x2="-12.337" y2="-3.23" gradientUnits="objectBoundingBox"><stop offset="0" stop-color="#8f4bd1"/><stop offset="1" stop-color="#8f4bd1" stop-opacity="0"/></linearGradient><linearGradient id="ak" x1="-134.74" y1="-15.361" x2="-134.74" y2="-16.354" xlink:href="#aj"/><linearGradient id="al" x1="-62.459" y1="-9.177" x2="-62.459" y2="-10.119" xlink:href="#aj"/><linearGradient id="am" x1="-0.003" y1="0.67" x2="1.01" y2="0.199" xlink:href="#aj"/><linearGradient id="an" x1="0.072" y1="0.861" x2="1.037" y2="0.328" xlink:href="#aj"/><linearGradient id="ao" x1="0.299" y1="0.626" x2="1.283" y2="0.177" xlink:href="#aj"/><linearGradient id="ap" x1="0.012" y1="0.523" x2="1.017" y2="0.523" gradientUnits="objectBoundingBox"><stop offset="0.005" stop-color="#0c0108" stop-opacity="0.702"/><stop offset="1" stop-color="#332051" stop-opacity="0"/></linearGradient><linearGradient id="aq" x1="0.5" y1="1" x2="0.5" gradientUnits="objectBoundingBox"><stop offset="0" stop-color="#0c0108" stop-opacity="0.702"/><stop offset="0.66" stop-color="#332051" stop-opacity="0"/></linearGradient><linearGradient id="ar" x1="-16.047" y1="-1.502" x2="-16.565" y2="-1.694" xlink:href="#a"/><linearGradient id="as" x1="-16.648" y1="-1.1" x2="-17.836" y2="-1.463" xlink:href="#b"/><linearGradient id="at" x1="-508.226" y1="-881.662" x2="-509.218" y2="-881.662" xlink:href="#a"/><linearGradient id="au" x1="-611.784" y1="-384.539" x2="-612.768" y2="-384.539" xlink:href="#a"/><linearGradient id="av" x1="-564.872" y1="-424.059" x2="-565.859" y2="-424.059" xlink:href="#a"/><linearGradient id="aw" x1="-609.412" y1="-329.393" x2="-610.393" y2="-329.393" xlink:href="#a"/><linearGradient id="ax" x1="-450.044" y1="-1187.438" x2="-451.047" y2="-1187.438" xlink:href="#a"/><linearGradient id="ay" x1="-531.261" y1="-1607.943" x2="-532.256" y2="-1607.943" xlink:href="#a"/><linearGradient id="az" x1="-479.729" y1="-5148.731" x2="-480.727" y2="-5148.731" xlink:href="#a"/><linearGradient id="ba" x1="-265.458" y1="-280.634" x2="-266.448" y2="-280.634" xlink:href="#a"/><linearGradient id="bb" x1="-667.862" y1="-314.743" x2="-668.841" y2="-314.743" xlink:href="#a"/><linearGradient id="bc" x1="-16.2" y1="-1.274" x2="-17.165" y2="-1.274" xlink:href="#a"/><linearGradient id="bd" x1="-399.181" y1="-377.018" x2="-400.19" y2="-377.018" xlink:href="#a"/><linearGradient id="be" x1="-419.584" y1="-502.207" x2="-420.591" y2="-502.207" xlink:href="#a"/><linearGradient id="bf" x1="-472.909" y1="-775.348" x2="-473.912" y2="-775.348" xlink:href="#a"/><linearGradient id="bg" x1="-656.077" y1="-274.28" x2="-657.052" y2="-274.28" xlink:href="#a"/><linearGradient id="bh" x1="-687.376" y1="-257.768" x2="-688.349" y2="-257.768" xlink:href="#a"/><linearGradient id="bi" x1="-516.951" y1="-3603.086" x2="-517.951" y2="-3603.086" xlink:href="#a"/><linearGradient id="bj" x1="-12.88" y1="-1.054" x2="-13.615" y2="-2.03" xlink:href="#a"/><linearGradient id="bk" x1="-13.522" y1="-1.87" x2="-12.56" y2="-1.87" xlink:href="#t"/><linearGradient id="bl" x1="-38.798" y1="-13.225" x2="-38.798" y2="-14.212" xlink:href="#t"/><linearGradient id="bm" x1="-9.715" y1="-3.354" x2="-9.715" y2="-2.338" xlink:href="#v"/><linearGradient id="bn" x1="-26.063" y1="-3.899" x2="-26.063" y2="-2.901" xlink:href="#w"/><linearGradient id="bo" x1="-18.925" y1="-3.91" x2="-18.925" y2="-2.867" xlink:href="#x"/><linearGradient id="bp" x1="-243.338" y1="-81.941" x2="-243.338" y2="-81.032" xlink:href="#w"/><linearGradient id="bq" x1="-21.887" y1="-3.476" x2="-21.887" y2="-2.514" xlink:href="#w"/><linearGradient id="br" x1="-24.622" y1="-4.339" x2="-24.622" y2="-3.327" xlink:href="#w"/><linearGradient id="bs" x1="-24.513" y1="-2.895" x2="-24.513" y2="-1.867" xlink:href="#w"/><linearGradient id="bt" x1="-10.654" y1="-4.207" x2="-11.653" y2="-4.207" xlink:href="#ac"/><linearGradient id="bu" x1="54.645" y1="-1.401" x2="55.645" y2="-1.401" xlink:href="#ac"/><linearGradient id="bv" x1="89.657" y1="-2.245" x2="90.656" y2="-2.245" xlink:href="#ac"/><linearGradient id="bw" x1="247.568" y1="-6.411" x2="248.564" y2="-6.411" xlink:href="#ac"/><linearGradient id="bx" x1="-6.498" y1="-1.526" x2="-6.498" y2="-0.521" xlink:href="#ag"/><linearGradient id="by" x1="-37.373" y1="-4.273" x2="-37.373" y2="-5.238" xlink:href="#ah"/><linearGradient id="bz" x1="-28.551" y1="-4.58" x2="-28.551" y2="-3.608" xlink:href="#ai"/><linearGradient id="ca" x1="-10.993" y1="-4.356" x2="-11.989" y2="-4.356" xlink:href="#aj"/><linearGradient id="cb" x1="-125.088" y1="-20.286" x2="-125.088" y2="-21.279" xlink:href="#aj"/><linearGradient id="cc" x1="-62.451" y1="-12.277" x2="-62.451" y2="-13.219" xlink:href="#aj"/><linearGradient id="cd" x1="106.33" y1="-2.329" x2="107.343" y2="-2.8" xlink:href="#aj"/><linearGradient id="ce" x1="64.715" y1="-1.413" x2="65.68" y2="-1.946" xlink:href="#aj"/><linearGradient id="cf" x1="266.599" y1="-6.885" x2="267.582" y2="-7.334" xlink:href="#aj"/><linearGradient id="cg" x1="22.961" y1="-0.047" x2="23.966" y2="-0.047" xlink:href="#ap"/><linearGradient id="ch" x1="12.666" y1="1" x2="12.666" y2="0" xlink:href="#aq"/><linearGradient id="ci" x1="0.55" y1="0.524" x2="0.113" y2="0.311" xlink:href="#a"/><linearGradient id="cj" x1="1.177" y1="0.632" x2="0.144" y2="0.264" xlink:href="#b"/><linearGradient id="ck" x1="6.148" y1="-2.819" x2="5.103" y2="-2.819" xlink:href="#a"/><linearGradient id="cl" x1="7.171" y1="-0.419" x2="6.089" y2="-0.419" xlink:href="#a"/><linearGradient id="cm" x1="6.711" y1="-0.8" x2="5.639" y2="-0.8" xlink:href="#a"/><linearGradient id="cn" x1="7.134" y1="0.001" x2="6.041" y2="0.001" xlink:href="#a"/><linearGradient id="co" x1="5.474" y1="-10.525" x2="4.462" y2="-10.525" xlink:href="#a"/><linearGradient id="cp" x1="6.365" y1="-4.197" x2="5.329" y2="-4.197" xlink:href="#a"/><linearGradient id="cq" x1="5.826" y1="-5.341" x2="4.798" y2="-5.341" xlink:href="#a"/><linearGradient id="cr" x1="3.708" y1="-0.569" x2="2.65" y2="-0.569" xlink:href="#a"/><linearGradient id="cs" x1="7.684" y1="0.31" x2="6.58" y2="0.31" xlink:href="#a"/><linearGradient id="ct" x1="1.103" y1="0.426" x2="0.039" y2="0.426" xlink:href="#a"/><linearGradient id="cu" x1="4.85" y1="-70.831" x2="3.86" y2="-70.831" xlink:href="#a"/><linearGradient id="cv" x1="5.095" y1="-27.409" x2="4.098" y2="-27.409" xlink:href="#a"/><linearGradient id="cw" x1="5.663" y1="-17.4" x2="4.659" y2="-17.4" xlink:href="#a"/><linearGradient id="cx" x1="7.543" y1="0.593" x2="6.427" y2="0.593" xlink:href="#a"/><linearGradient id="cy" x1="7.805" y1="0.852" x2="6.678" y2="0.852" xlink:href="#a"/><linearGradient id="cz" x1="6.169" y1="-8.271" x2="5.15" y2="-8.271" xlink:href="#a"/><linearGradient id="da" x1="0.954" y1="0.777" x2="0.006" y2="-0.12" xlink:href="#a"/><linearGradient id="db" x1="-0.146" y1="0.35" x2="1.013" y2="0.35" xlink:href="#t"/><linearGradient id="dc" x1="0.095" y1="0.434" x2="0.095" y2="-0.482" xlink:href="#t"/><linearGradient id="dd" x1="0.465" y1="-0.132" x2="0.465" y2="0.786" xlink:href="#v"/><linearGradient id="de" x1="0.357" y1="-0.121" x2="0.357" y2="0.906" xlink:href="#w"/><linearGradient id="df" x1="0.513" y1="-0.128" x2="0.513" y2="0.764" xlink:href="#x"/><linearGradient id="dg" x1="-1.259" y1="-3.255" x2="-1.259" y2="-1.684" xlink:href="#w"/><linearGradient id="dh" x1="0.408" y1="-0.068" x2="0.408" y2="1.115" xlink:href="#w"/><linearGradient id="di" x1="0.433" y1="-0.277" x2="0.433" y2="0.702" xlink:href="#w"/><linearGradient id="dj" x1="0.421" y1="-0.201" x2="0.421" y2="0.731" xlink:href="#w"/><linearGradient id="dk" x1="1.022" y1="0.475" x2="0.01" y2="0.475" xlink:href="#ac"/><linearGradient id="dl" x1="-0.141" y1="0.504" x2="1.026" y2="0.504" xlink:href="#ac"/><linearGradient id="dm" x1="0.019" y1="0.144" x2="0.952" y2="0.144" xlink:href="#ac"/><linearGradient id="dn" x1="0.005" y1="0.541" x2="0.99" y2="0.345" gradientUnits="objectBoundingBox"><stop offset="0.015" stop-color="#d777dd" stop-opacity="0.8"/><stop offset="1" stop-color="#d777dd" stop-opacity="0"/></linearGradient><linearGradient id="do" x1="0.168" y1="0.762" x2="0.168" y2="-0.374" xlink:href="#ah"/><linearGradient id="dp" x1="0.222" y1="-0.307" x2="0.222" y2="0.801" xlink:href="#ai"/><linearGradient id="dq" x1="0.02" y1="0.128" x2="0.946" y2="0.128" xlink:href="#aj"/><linearGradient id="dr" x1="1.027" y1="0.501" x2="-0.155" y2="0.501" xlink:href="#aj"/><linearGradient id="ds" x1="1.029" y1="0.476" x2="0.004" y2="0.476" xlink:href="#aj"/><linearGradient id="dt" x1="0.911" y1="1.085" x2="0.911" y2="0.037" xlink:href="#aj"/><linearGradient id="du" x1="0.759" y1="0.505" x2="0.759" y2="-0.795" xlink:href="#aj"/><linearGradient id="dv" x1="0.576" y1="1" x2="0.409" y2="0.049" gradientUnits="objectBoundingBox"><stop offset="0" stop-color="#0c0108" stop-opacity="0.702"/><stop offset="0.592" stop-color="#332051" stop-opacity="0"/></linearGradient><linearGradient id="dw" x1="6.107" y1="0.874" x2="5.646" y2="0.67" xlink:href="#a"/><linearGradient id="dx" x1="7.76" y1="0.946" x2="6.64" y2="0.581" xlink:href="#b"/><linearGradient id="dy" x1="205.782" y1="59.23" x2="204.762" y2="59.23" xlink:href="#a"/><linearGradient id="dz" x1="244.062" y1="41.916" x2="243.023" y2="41.916" xlink:href="#a"/><linearGradient id="ea" x1="225.976" y1="43.224" x2="224.941" y2="43.224" xlink:href="#a"/><linearGradient id="eb" x1="242.838" y1="37.9" x2="241.794" y2="37.9" xlink:href="#a"/><linearGradient id="ec" x1="186.029" y1="170.259" x2="185.027" y2="170.259" xlink:href="#a"/><linearGradient id="ed" x1="215.879" y1="74.892" x2="214.863" y2="74.892" xlink:href="#a"/><linearGradient id="ee" x1="195.978" y1="85.434" x2="194.968" y2="85.434" xlink:href="#a"/><linearGradient id="ef" x1="107.469" y1="24.859" x2="106.442" y2="24.859" xlink:href="#a"/><linearGradient id="eg" x1="265.414" y1="37.855" x2="264.364" y2="37.855" xlink:href="#a"/><linearGradient id="eh" x1="9.76" y1="0.746" x2="8.711" y2="0.746" xlink:href="#a"/><linearGradient id="ei" x1="168.708" y1="215.212" x2="167.717" y2="215.212" xlink:href="#a"/><linearGradient id="ej" x1="175.709" y1="1053.945" x2="174.714" y2="1053.945" xlink:href="#a"/><linearGradient id="ek" x1="196.756" y1="414.615" x2="195.758" y2="414.615" xlink:href="#a"/><linearGradient id="el" x1="260.829" y1="34.226" x2="259.774" y2="34.226" xlink:href="#a"/><linearGradient id="em" x1="272.992" y1="33.152" x2="271.93" y2="33.152" xlink:href="#a"/><linearGradient id="en" x1="212.232" y1="124.99" x2="211.226" y2="124.99" xlink:href="#a"/><linearGradient id="eo" x1="9.1" y1="1.133" x2="8.245" y2="0.215" xlink:href="#a"/><linearGradient id="ep" x1="7.89" y1="0.767" x2="8.971" y2="0.767" xlink:href="#t"/><linearGradient id="eq" x1="17.481" y1="2.929" x2="17.481" y2="1.975" xlink:href="#t"/><linearGradient id="er" x1="5.145" y1="0.44" x2="5.145" y2="1.39" xlink:href="#v"/><linearGradient id="es" x1="10.172" y1="0.58" x2="10.172" y2="1.592" xlink:href="#w"/><linearGradient id="et" x1="9.766" y1="0.501" x2="9.766" y2="1.435" xlink:href="#x"/><linearGradient id="eu" x1="93.057" y1="16.872" x2="93.057" y2="18.115" xlink:href="#w"/><linearGradient id="ev" x1="7.554" y1="0.606" x2="7.554" y2="1.694" xlink:href="#w"/><linearGradient id="ew" x1="14.989" y1="0.544" x2="14.989" y2="1.529" xlink:href="#w"/><linearGradient id="ex" x1="16.587" y1="0.334" x2="16.587" y2="1.292" xlink:href="#w"/><linearGradient id="ey" x1="3.135" y1="0.768" x2="4.131" y2="0.659" xlink:href="#dn"/><linearGradient id="ez" x1="5.918" y1="1.143" x2="4.913" y2="1.143" xlink:href="#ac"/><linearGradient id="fa" x1="16.341" y1="2.575" x2="15.333" y2="2.575" xlink:href="#ac"/><linearGradient id="fb" x1="14.439" y1="2.747" x2="13.439" y2="2.747" xlink:href="#ac"/><linearGradient id="fc" x1="30.194" y1="5.56" x2="29.19" y2="5.56" xlink:href="#ac"/><linearGradient id="fd" x1="16.018" y1="1.837" x2="16.018" y2="0.766" xlink:href="#ah"/><linearGradient id="fe" x1="12.572" y1="0.661" x2="12.572" y2="1.716" xlink:href="#ai"/><linearGradient id="ff" x1="6.08" y1="1.162" x2="5.068" y2="1.162" xlink:href="#aj"/><linearGradient id="fg" x1="42.714" y1="4.569" x2="42.714" y2="3.548" xlink:href="#aj"/><linearGradient id="fh" x1="25.343" y1="3.367" x2="25.343" y2="2.227" xlink:href="#aj"/><linearGradient id="fi" x1="42.025" y1="5.872" x2="42.025" y2="4.87" xlink:href="#aj"/><linearGradient id="fj" x1="38.496" y1="4.802" x2="38.496" y2="3.802" xlink:href="#aj"/><linearGradient id="fk" x1="41.08" y1="5.982" x2="41.08" y2="4.984" xlink:href="#aj"/><linearGradient id="fl" x1="43.294" y1="6.109" x2="43.294" y2="5.109" xlink:href="#aj"/><linearGradient id="fm" x1="37.209" y1="9.244" x2="38.213" y2="9.244" xlink:href="#aj"/><linearGradient id="fn" x1="0.5" y1="1" x2="0.5" gradientUnits="objectBoundingBox"><stop offset="0" stop-color="#0c0108" stop-opacity="0.702"/><stop offset="0.521" stop-color="#332051" stop-opacity="0"/></linearGradient></defs><g transform="translate(-2863.057 12101.478)"><path class="a" d="M604.012,455.984c-4.94,0-9.7.156-14.168.444-3.265-4.571-22.7-8.084-46.208-8.084-25.79,0-46.7,4.229-46.7,9.446s20.907,9.446,46.7,9.446c4.94,0,9.7-.156,14.168-.444,3.265,4.571,22.7,8.084,46.208,8.084,25.79,0,46.7-4.229,46.7-9.446S629.8,455.984,604.012,455.984Z" transform="translate(2632.281 -12460.588)"/><path class="a" d="M79.158,455.984c4.94,0,9.7.156,14.168.444,3.265-4.571,22.7-8.084,46.208-8.084,25.79,0,46.7,4.229,46.7,9.446s-20.907,9.446-46.7,9.446c-4.94,0-9.7-.156-14.168-.444-3.265,4.571-22.7,8.084-46.208,8.084-25.79,0-46.7-4.229-46.7-9.446S53.368,455.984,79.158,455.984Z" transform="translate(2830.596 -12460.588)"/><g transform="translate(3202.941 -12057.623)"><g transform="translate(0 0)"><g transform="translate(0 10.144)"><path class="b" d="M640.626,404.171s11.847.08,20.041,16.716-5.052,27.188-5.052,27.188-6.412,14.232-24.906,10.193a22.663,22.663,0,0,1-20.837-5.48s-10.142-3.1-11.561-13.757c0,0-4.739-3.748-1.041-15.47s18.464-22.024,31.376-21.373A10.213,10.213,0,0,1,640.626,404.171Z" transform="translate(-595.858 -401.067)"/><g transform="translate(0 0.001)"><path class="c" d="M674.071,421.939c8.193,16.637-5.052,27.188-5.052,27.188,7.831-29.809-19.213-38.852-19.213-38.852s-1.664-1.292-1.265-2.307c1.271-3.225,5.489-2.744,5.489-2.744S665.877,405.3,674.071,421.939Z" transform="translate(-609.262 -402.12)"/><path class="d" d="M645.168,412.8l3.147-.791s27.044,9.043,19.213,38.852c0,0-6.412,14.232-24.906,10.193C642.62,461.055,655.548,434.552,645.168,412.8Z" transform="translate(-607.77 -403.855)"/><g transform="translate(13.922 8.135)"><path class="e" d="M654.878,478.531c-.3.039-.614.073-.93.1C654.264,478.6,654.573,478.57,654.878,478.531Z" transform="translate(-624.577 -428.935)"/><path class="f" d="M660.022,477.414q-.38.121-.773.231Q659.643,477.535,660.022,477.414Z" transform="translate(-625.928 -428.65)"/><path class="g" d="M658.891,477.744q-.41.112-.837.209C658.337,477.888,658.617,477.819,658.891,477.744Z" transform="translate(-625.623 -428.734)"/><path class="h" d="M661.227,477q-.38.141-.776.27Q660.847,477.14,661.227,477Z" transform="translate(-626.234 -428.544)"/><path class="i" d="M648.966,478.712q-.518-.027-1.05-.075Q648.448,478.685,648.966,478.712Z" transform="translate(-623.041 -428.962)"/><path class="j" d="M653.519,478.675q-.438.036-.89.055Q653.081,478.71,653.519,478.675Z" transform="translate(-624.241 -428.971)"/><path class="k" d="M652.025,478.761q-.485.018-.985.017Q651.54,478.779,652.025,478.761Z" transform="translate(-623.837 -428.993)"/><path class="l" d="M657.227,478.073q-.857.19-1.778.316C656.063,478.306,656.656,478.2,657.227,478.073Z" transform="translate(-624.96 -428.818)"/><path class="m" d="M662.315,476.577q-.348.146-.709.282Q661.968,476.722,662.315,476.577Z" transform="translate(-626.528 -428.437)"/><path class="n" d="M636.917,411.983l1.1.811c10.381,21.751-2.547,48.254-2.547,48.254a22.814,22.814,0,0,1-17.179-2.667l-3.659-2.813S611.865,427.356,636.917,411.983Z" transform="translate(-614.539 -411.983)"/><path class="o" d="M642.62,477.818c.4.087.794.163,1.183.234C643.414,477.981,643.021,477.905,642.62,477.818Z" transform="translate(-621.692 -428.753)"/><path class="p" d="M644.568,478.2c.38.066.756.125,1.126.176C645.324,478.322,644.949,478.262,644.568,478.2Z" transform="translate(-622.188 -428.849)"/><path class="q" d="M646.262,478.455c.338.045.671.082,1,.114C646.933,478.537,646.6,478.5,646.262,478.455Z" transform="translate(-622.62 -428.915)"/><path class="r" d="M663.374,476.1q-.353.167-.721.324Q663.022,476.269,663.374,476.1Z" transform="translate(-626.795 -428.316)"/><path class="s" d="M664.43,475.581c-.224.118-.454.233-.688.345Q664.093,475.757,664.43,475.581Z" transform="translate(-627.072 -428.183)"/><path class="t" d="M650.49,478.773q-.451,0-.914-.025Q650.04,478.768,650.49,478.773Z" transform="translate(-623.464 -428.99)"/></g><path class="u" d="M633.443,410.479,633,411.6c-25.052,15.373-22.287,43.585-22.287,43.585s-10.142-3.1-11.561-13.757C599.149,441.428,604.242,412.286,633.443,410.479Z" transform="translate(-596.696 -403.465)"/><path class="v" d="M597.269,423.932c3.7-11.722,18.464-22.024,31.376-21.373,0,0,3.216.829,1.58,6.108l0,0c-27.094,3.2-31.91,30.731-31.91,30.731S593.572,435.655,597.269,423.932Z" transform="translate(-595.858 -401.44)"/><path class="w" d="M646.344,406.915a.908.908,0,0,0-.06.371l-4.541-.229c.8-4.173-1.891-4.87-1.891-4.87a10.217,10.217,0,0,1,11.981,1.985S647.615,403.69,646.344,406.915Z" transform="translate(-607.065 -401.068)"/></g><path class="x" d="M656.254,424.176a38.077,38.077,0,0,0-16.074-11.493,4.029,4.029,0,0,1-1.676.376s3.685,11.044,2.111,22.334c0,0,.572-15.3-4.521-22.686,0,0-12.332,3.927-19.644,22.254,0,0,4.328-15.144,16.881-23.371,0,0-12.481.2-23.264,11.982,0,0,6.65-11.555,23.839-14.485l6.4,1.975A30.507,30.507,0,0,1,656.254,424.176Z" transform="translate(-599.477 -403.11)"/><g transform="translate(0 3.973)"><path class="y" d="M665.973,425.4s-6.291-8.123-16.074-11.493l-1.676.376s3.34,12.88,2.111,22.334c0,0,3.823-13,7.405-10.176S665.973,425.4,665.973,425.4Z" transform="translate(-609.197 -408.311)"/><path class="z" d="M642.769,434.416s.5-11.965-4.535-20.472c0,0-11.74,2.869-19.766,22.6,0,0,7.19-13.276,13.9-15.988S642.769,434.416,642.769,434.416Z" transform="translate(-601.618 -408.319)"/><g transform="translate(44.454)"><path class="aa" d="M657.439,414.652a18.428,18.428,0,0,1-1.932-1.083S656.278,413.954,657.439,414.652Z" transform="translate(-655.507 -408.224)"/><path class="ab" d="M658.1,412.825c1.593.777,3.893,1.631,5.8,1.276,3.287-.611-3.339-7.7-3.34-7.7,4.186,1.458,10.8,5.367,15.959,15.847a26.372,26.372,0,0,1,2.231,6.4l.417,3.321c0,.005,0,.01,0,.016-.041-.124-3.865-11.713-7.489-14.214-3.643-2.514-3.193,5.718-3.193,5.718C666.823,418.606,661.129,414.646,658.1,412.825Z" transform="translate(-656.167 -406.397)"/></g><path class="ac" d="M615.112,436.9s2.7-9.023,8.483-15.687c0,0-8.85,6.376-8.7,3.334s5.583-7.841,5.583-7.841-9.352,2.946-15.667,14.847C604.814,431.555,613.493,422.267,615.112,436.9Z" transform="translate(-598.14 -409.023)"/><path class="ad" d="M597.269,425.118c2.3-7.293,8.887-14.036,16.645-17.933-.137.1-4.621,3.316-6.484,6.554-1.891,3.288,7.292,1.052,7.292,1.052-5.911,3.308-10.476,11.4-10.476,11.4s1.935-6.5-1.612-6.33-6.189,17.512-6.189,17.514C595.692,434.987,595.386,431.089,597.269,425.118Z" transform="translate(-595.859 -406.598)"/></g><g transform="translate(19.493 20.255)"><path class="ae" d="M634.566,453.065s-9.232-5.114-12.553-7.7c0,0,4.138,19.194,21.327,18.219,18.013-1.021,19.276-14.372,19.206-18.88,0,0-3.325,10.648-8.039,13.115s-17.63,1.93-22.007-1.4S634.566,453.065,634.566,453.065Z" transform="translate(-622.013 -432.438)"/><path class="af" d="M648.3,440.132a7.54,7.54,0,1,1-6.933-8.405A7.708,7.708,0,0,1,648.3,440.132Z" transform="translate(-624.876 -429.127)"/><path class="ag" d="M673.423,434.318c-.233,3.152-2.568,5.55-5.217,5.355s-4.607-2.91-4.374-6.062,2.568-5.55,5.217-5.355S673.656,431.166,673.423,434.318Z" transform="translate(-632.661 -428.245)"/><path class="ah" d="M660.785,450.061c-.091,1.23-.928,2.172-1.87,2.1a2.024,2.024,0,0,1-1.54-2.354c.091-1.23.928-2.172,1.87-2.1A2.026,2.026,0,0,1,660.785,450.061Z" transform="translate(-631.018 -433.202)"/></g><path class="ai" d="M640.626,404.171s11.847.08,20.041,16.716-5.052,27.188-5.052,27.188-6.412,14.232-24.906,10.193a22.663,22.663,0,0,1-20.837-5.48s-10.142-3.1-11.561-13.757c0,0-4.739-3.748-1.041-15.47s18.464-22.024,31.376-21.373A10.213,10.213,0,0,1,640.626,404.171Z" transform="translate(-595.858 -401.067)"/></g><g transform="translate(25.396)"><path class="aj" d="M645.987,402.349s.7,2.451-.906,3.406c0,0,.066,1.254-3.146.791,0,0-2.9.2-3.161-2.336,0,0,1.912-11.4-5.753-10.841,0,0-3.463.214-3.053-2.786a2.811,2.811,0,0,1,2.573-3.106C635.408,387.1,644.868,392.024,645.987,402.349Z" transform="translate(-629.934 -387.456)"/><path class="ak" d="M638.775,405.008s1.912-11.4-5.753-10.841c0,0-3.463.214-3.053-2.786a3.185,3.185,0,0,1,.04-.785s15.054-.783,11.927,16.749C641.936,407.344,639.035,407.547,638.775,405.008Z" transform="translate(-629.934 -388.254)"/><path class="al" d="M645.987,402.349s.7,2.451-.906,3.406c0,0,.066,1.254-3.146.791,0,0-2.9.2-3.161-2.336,0,0,1.912-11.4-5.753-10.841,0,0-3.463.214-3.053-2.786a2.811,2.811,0,0,1,2.573-3.106C635.408,387.1,644.868,392.024,645.987,402.349Z" transform="translate(-629.934 -387.456)"/></g><g transform="translate(20.628 30.896)"><g transform="translate(0 11.771)"><path class="am" d="M634.954,453.065a9.418,9.418,0,0,0,5.859,5.944l-1.187-4.56c7.134,1.513,12.506-.2,16.283-2.584l.528,4.192c1.549-1.4,2.169-4.7,2.392-6.408a20.72,20.72,0,0,0,4.1-4.943s.2,15.366-16.962,18.068-22.436-15.985-22.436-15.985A50.6,50.6,0,0,0,634.954,453.065Z" transform="translate(-623.536 -444.706)"/><g transform="translate(0.001)"><path class="an" d="M624,447.11c1.991,4.818,8.129,15.988,21.665,13.857,12.565-1.978,15.824-10.741,16.667-15.3.405-.6.607-.965.607-.965s.2,15.366-16.962,18.068-22.436-15.985-22.436-15.985C623.691,446.9,623.843,447,624,447.11Z" transform="translate(-623.537 -444.706)"/><path class="ao" d="M624,447.11c1.991,4.818,8.129,15.988,21.665,13.857,12.565-1.978,15.824-10.741,16.667-15.3.405-.6.607-.965.607-.965s.2,15.366-16.962,18.068-22.436-15.985-22.436-15.985C623.691,446.9,623.843,447,624,447.11Z" transform="translate(-623.537 -444.706)"/><g transform="translate(29.135 7.159)"><path class="an" d="M665.867,454.312l.528,4.192-3.416-1.265-.349-1.264A20.387,20.387,0,0,0,665.867,454.312Z" transform="translate(-662.63 -454.312)"/><path class="ap" d="M665.867,454.312l.528,4.192-3.416-1.265-.349-1.264A20.387,20.387,0,0,0,665.867,454.312Z" transform="translate(-662.63 -454.312)"/></g><g transform="translate(9.144 7.419)"><path class="an" d="M638.08,455.6a9.655,9.655,0,0,0,5.24,5.72l-3.986-1.446s-2.433-1.072-3.527-5.212a0,0,0,0,0,0,0Q636.967,455.182,638.08,455.6Z" transform="translate(-635.807 -454.661)"/><path class="aq" d="M638.08,455.6a9.655,9.655,0,0,0,5.24,5.72l-3.986-1.446s-2.433-1.072-3.527-5.212a0,0,0,0,0,0,0Q636.967,455.182,638.08,455.6Z" transform="translate(-635.807 -454.661)"/></g></g></g><g transform="translate(30.541)"><path class="am" d="M673.619,434.666c-.221,2.986-2.433,5.257-4.942,5.072s-4.364-2.756-4.144-5.743,2.433-5.257,4.942-5.072S673.838,431.68,673.619,434.666Z" transform="translate(-664.515 -428.912)"/><g transform="translate(0.987 0.751)"><path class="an" d="M671.82,429.919a5.981,5.981,0,0,1,.97,3.8c-.221,2.986-2.433,5.257-4.942,5.072a3.952,3.952,0,0,1-2.008-.739A4.237,4.237,0,0,0,669.013,440c2.509.186,4.721-2.085,4.942-5.072A5.6,5.6,0,0,0,671.82,429.919Z" transform="translate(-665.84 -429.919)"/><path class="ar" d="M671.82,429.919a5.981,5.981,0,0,1,.97,3.8c-.221,2.986-2.433,5.257-4.942,5.072a3.952,3.952,0,0,1-2.008-.739A4.237,4.237,0,0,0,669.013,440c2.509.186,4.721-2.085,4.942-5.072A5.6,5.6,0,0,0,671.82,429.919Z" transform="translate(-665.84 -429.919)"/></g></g><g transform="translate(7.223 2.788)"><path class="am" d="M647.363,440.568a7.083,7.083,0,1,1-6.513-7.9A7.239,7.239,0,0,1,647.363,440.568Z" transform="translate(-633.227 -432.653)"/><g transform="translate(1.416 1.482)"><path class="an" d="M645.069,434.642a7.554,7.554,0,0,1,1.394,4.982,7.24,7.24,0,0,1-7.6,6.853,6.82,6.82,0,0,1-3.734-1.463,6.926,6.926,0,0,0,5.119,2.913,7.241,7.241,0,0,0,7.6-6.853A7.464,7.464,0,0,0,645.069,434.642Z" transform="translate(-635.127 -434.642)"/><path class="as" d="M645.069,434.642a7.554,7.554,0,0,1,1.394,4.982,7.24,7.24,0,0,1-7.6,6.853,6.82,6.82,0,0,1-3.734-1.463,6.926,6.926,0,0,0,5.119,2.913,7.241,7.241,0,0,0,7.6-6.853A7.464,7.464,0,0,0,645.069,434.642Z" transform="translate(-635.127 -434.642)"/></g></g><g transform="translate(25.121 14.146)"><path class="am" d="M660.586,450.2c-.089,1.2-.907,2.123-1.828,2.055a1.981,1.981,0,0,1-1.507-2.3c.089-1.2.908-2.123,1.828-2.055A1.98,1.98,0,0,1,660.586,450.2Z" transform="translate(-657.244 -447.892)"/><g transform="translate(0.168 0.337)"><path class="an" d="M659.912,448.345a2.675,2.675,0,0,1,.16,1.136c-.089,1.2-.908,2.124-1.828,2.055a1.369,1.369,0,0,1-.775-.333,1.644,1.644,0,0,0,1.346,1.166c.921.068,1.739-.853,1.828-2.055A2.332,2.332,0,0,0,659.912,448.345Z" transform="translate(-657.469 -448.345)"/><path class="at" d="M659.912,448.345a2.675,2.675,0,0,1,.16,1.136c-.089,1.2-.908,2.124-1.828,2.055a1.369,1.369,0,0,1-.775-.333,1.644,1.644,0,0,0,1.346,1.166c.921.068,1.739-.853,1.828-2.055A2.332,2.332,0,0,0,659.912,448.345Z" transform="translate(-657.469 -448.345)"/></g></g></g></g><path class="au" d="M598.311,440.675c1.419,10.657,11.561,13.757,11.561,13.757a22.275,22.275,0,0,0,15.859,6.113c-1.341-3.15-1.511-8.066,2.191-15.574,8.369-16.973-9.671-31.543-9.671-31.543.273-3.691-3.723-5.483-4.822-5.9-7.545,3.932-13.907,10.54-16.159,17.68C593.572,436.927,598.311,440.675,598.311,440.675Z" transform="translate(-595.858 -392.568)"/><path class="av" d="M660.667,417.42c-8.194-16.637-20.041-16.716-20.041-16.716a11.386,11.386,0,0,0-4.34-2.64c-2.794-7.4-9.989-10.906-12.425-10.589a2.811,2.811,0,0,0-2.573,3.106c-.41,3,3.053,2.786,3.053,2.786,3.632-.267,5.112,2.153,5.666,4.773a8.114,8.114,0,0,0-1.362.578c-12.912-.651-27.678,9.651-31.376,21.373s1.041,15.47,1.041,15.47c1.419,10.657,11.561,13.757,11.561,13.757a22.663,22.663,0,0,0,20.837,5.48c18.494,4.039,24.906-10.193,24.906-10.193S668.861,434.056,660.667,417.42Z" transform="translate(-595.858 -387.456)"/></g><g transform="translate(2872.459 -12057.623)"><g transform="translate(0 0)"><g transform="translate(0 10.144)"><path class="b" d="M67.792,404.171s-11.847.08-20.041,16.716S52.8,448.074,52.8,448.074s6.412,14.232,24.906,10.193a22.663,22.663,0,0,0,20.837-5.48s10.142-3.1,11.561-13.757c0,0,4.739-3.748,1.041-15.47s-18.464-22.024-31.376-21.373A10.213,10.213,0,0,0,67.792,404.171Z" transform="translate(-45.076 -401.067)"/><g transform="translate(0.001 0.001)"><path class="aw" d="M47.752,421.939c-8.194,16.637,5.052,27.188,5.052,27.188-7.831-29.809,19.213-38.852,19.213-38.852s1.664-1.292,1.265-2.307c-1.271-3.225-5.489-2.744-5.489-2.744S55.945,405.3,47.752,421.939Z" transform="translate(-45.077 -402.12)"/><path class="ax" d="M77.317,412.8l-3.147-.791s-27.044,9.043-19.213,38.852c0,0,6.412,14.232,24.906,10.193C79.865,461.055,66.936,434.552,77.317,412.8Z" transform="translate(-47.232 -403.855)"/><g transform="translate(16.204 8.135)"><path class="ay" d="M76.287,478.531c.306.039.614.073.93.1C76.9,478.6,76.593,478.57,76.287,478.531Z" transform="translate(-69.231 -428.935)"/><path class="az" d="M71.2,477.414q.38.121.773.231Q71.577,477.535,71.2,477.414Z" transform="translate(-67.934 -428.65)"/><path class="ba" d="M72.307,477.744c.274.075.554.144.837.209Q72.718,477.855,72.307,477.744Z" transform="translate(-68.217 -428.734)"/><path class="bb" d="M69.991,477q.38.141.776.27C70.5,477.183,70.244,477.093,69.991,477Z" transform="translate(-67.627 -428.544)"/><path class="bc" d="M82.159,478.712q.518-.027,1.05-.075Q82.676,478.685,82.159,478.712Z" transform="translate(-70.727 -428.962)"/><path class="bd" d="M77.661,478.675q.438.036.89.055Q78.1,478.71,77.661,478.675Z" transform="translate(-69.581 -428.971)"/><path class="be" d="M79.122,478.761q.485.018.985.017Q79.608,478.779,79.122,478.761Z" transform="translate(-69.953 -428.993)"/><path class="bf" d="M73.649,478.073q.857.19,1.777.316C74.813,478.306,74.221,478.2,73.649,478.073Z" transform="translate(-68.559 -428.818)"/><path class="bg" d="M68.926,476.577q.348.146.708.282Q69.274,476.722,68.926,476.577Z" transform="translate(-67.356 -428.437)"/><path class="bh" d="M85.164,411.983l-1.1.811c-10.381,21.751,2.547,48.254,2.547,48.254a22.814,22.814,0,0,0,17.179-2.667l3.659-2.813S110.216,427.356,85.164,411.983Z" transform="translate(-70.185 -411.983)"/><path class="bi" d="M88.459,477.818c-.4.087-.794.163-1.183.234C87.666,477.981,88.059,477.905,88.459,477.818Z" transform="translate(-72.03 -428.753)"/><path class="bj" d="M86.531,478.2c-.381.066-.756.125-1.126.176C85.774,478.322,86.15,478.262,86.531,478.2Z" transform="translate(-71.553 -428.849)"/><path class="bk" d="M84.879,478.455c-.338.045-.671.082-1,.114C84.209,478.537,84.542,478.5,84.879,478.455Z" transform="translate(-71.165 -428.915)"/><path class="bl" d="M67.863,476.1c.236.111.475.219.721.324Q68.216,476.269,67.863,476.1Z" transform="translate(-67.085 -428.316)"/><path class="bm" d="M66.819,475.581c.224.118.454.233.688.345Q67.156,475.757,66.819,475.581Z" transform="translate(-66.819 -428.183)"/><path class="bn" d="M80.681,478.773q.451,0,.914-.025Q81.132,478.768,80.681,478.773Z" transform="translate(-70.35 -428.99)"/></g><path class="bo" d="M86.319,410.479l.446,1.121c25.052,15.373,22.287,43.585,22.287,43.585s10.142-3.1,11.561-13.757C120.613,441.428,115.52,412.286,86.319,410.479Z" transform="translate(-55.583 -403.465)"/><path class="bp" d="M122.309,423.932c-3.7-11.722-18.464-22.024-31.376-21.373,0,0-3.216.829-1.58,6.108l0,0c27.094,3.2,31.91,30.731,31.91,30.731S126.007,435.655,122.309,423.932Z" transform="translate(-56.237 -401.44)"/><path class="bq" d="M81.045,406.915a.91.91,0,0,1,.06.371l4.541-.229c-.8-4.173,1.892-4.87,1.892-4.87a10.217,10.217,0,0,0-11.981,1.985S79.774,403.69,81.045,406.915Z" transform="translate(-52.841 -401.068)"/></g><path class="br" d="M59.443,424.176a38.077,38.077,0,0,1,16.074-11.493,4.033,4.033,0,0,0,1.676.376s-3.685,11.044-2.111,22.334c0,0-.572-15.3,4.521-22.686,0,0,12.332,3.927,19.644,22.254,0,0-4.328-15.144-16.881-23.371,0,0,12.481.2,23.264,11.982,0,0-6.65-11.555-23.839-14.485l-6.4,1.975A30.513,30.513,0,0,0,59.443,424.176Z" transform="translate(-48.736 -403.11)"/><g transform="translate(0.026 3.973)"><path class="bs" d="M59.443,425.4s6.292-8.123,16.074-11.493l1.676.376s-3.34,12.88-2.111,22.334c0,0-3.822-13-7.405-10.176S59.443,425.4,59.443,425.4Z" transform="translate(-48.762 -408.311)"/><path class="bt" d="M80.4,434.416s-.5-11.965,4.535-20.472c0,0,11.74,2.869,19.766,22.6,0,0-7.19-13.276-13.9-15.988S80.4,434.416,80.4,434.416Z" transform="translate(-54.098 -408.319)"/><path class="bu" d="M73.384,414.652a18.431,18.431,0,0,0,1.932-1.083S74.545,413.954,73.384,414.652Z" transform="translate(-52.313 -408.224)"/><path class="bv" d="M66.182,412.825c-1.593.777-3.893,1.631-5.8,1.276-3.287-.611,3.339-7.7,3.34-7.7-4.186,1.458-10.8,5.367-15.959,15.847a26.371,26.371,0,0,0-2.231,6.4l-.417,3.321c0,.005,0,.01,0,.016.041-.124,3.865-11.713,7.488-14.214,3.643-2.514,3.193,5.718,3.193,5.718C57.459,418.606,63.153,414.646,66.182,412.825Z" transform="translate(-45.111 -406.397)"/><path class="bw" d="M109.952,436.9s-2.7-9.023-8.483-15.687c0,0,8.85,6.376,8.7,3.334s-5.583-7.841-5.583-7.841,9.352,2.946,15.667,14.847C120.251,431.555,111.571,422.267,109.952,436.9Z" transform="translate(-59.467 -409.023)"/><path class="bx" d="M127.767,425.118c-2.3-7.293-8.887-14.036-16.645-17.933.137.1,4.621,3.316,6.484,6.554,1.892,3.288-7.292,1.052-7.292,1.052,5.911,3.308,10.476,11.4,10.476,11.4s-1.935-6.5,1.612-6.33,6.189,17.512,6.189,17.514C129.344,434.987,129.651,431.089,127.767,425.118Z" transform="translate(-61.72 -406.598)"/></g><g transform="translate(7.21 20.255)"><path class="by" d="M83.062,453.065s9.232-5.114,12.553-7.7c0,0-4.138,19.194-21.327,18.219-18.013-1.021-19.277-14.372-19.207-18.88,0,0,3.325,10.648,8.039,13.115s17.63,1.93,22.007-1.4S83.062,453.065,83.062,453.065Z" transform="translate(-54.834 -432.438)"/><path class="bz" d="M78.032,440.132a7.54,7.54,0,1,0,6.933-8.405A7.708,7.708,0,0,0,78.032,440.132Z" transform="translate(-60.675 -429.127)"/><path class="ca" d="M54.77,434.318c.233,3.152,2.568,5.55,5.217,5.355s4.607-2.91,4.374-6.062-2.568-5.55-5.217-5.355S54.537,431.166,54.77,434.318Z" transform="translate(-54.751 -428.245)"/><path class="cb" d="M69.528,450.061c.091,1.23.928,2.172,1.87,2.1a2.024,2.024,0,0,0,1.54-2.354c-.091-1.23-.928-2.172-1.87-2.1A2.026,2.026,0,0,0,69.528,450.061Z" transform="translate(-58.513 -433.202)"/></g><path class="cc" d="M67.792,404.171s-11.847.08-20.041,16.716S52.8,448.074,52.8,448.074s6.412,14.232,24.906,10.193a22.663,22.663,0,0,0,20.837-5.48s10.142-3.1,11.561-13.757c0,0,4.739-3.748,1.041-15.47s-18.464-22.024-31.376-21.373A10.213,10.213,0,0,0,67.792,404.171Z" transform="translate(-45.076 -401.067)"/></g><g transform="translate(25.885)"><path class="aj" d="M79.959,402.349s-.7,2.451.906,3.406c0,0-.066,1.254,3.147.791,0,0,2.9.2,3.161-2.336,0,0-1.912-11.4,5.753-10.841,0,0,3.463.214,3.053-2.786a2.811,2.811,0,0,0-2.573-3.106C90.538,387.1,81.077,392.024,79.959,402.349Z" transform="translate(-79.808 -387.456)"/><path class="cd" d="M88.461,405.008s-1.912-11.4,5.753-10.841c0,0,3.463.214,3.053-2.786a3.185,3.185,0,0,0-.04-.785s-15.054-.783-11.927,16.749C85.3,407.344,88.2,407.547,88.461,405.008Z" transform="translate(-81.098 -388.254)"/><path class="ce" d="M79.959,402.349s-.7,2.451.906,3.406c0,0-.066,1.254,3.147.791,0,0,2.9.2,3.161-2.336,0,0-1.912-11.4,5.753-10.841,0,0,3.463.214,3.053-2.786a2.811,2.811,0,0,0-2.573-3.106C90.538,387.1,81.077,392.024,79.959,402.349Z" transform="translate(-79.808 -387.456)"/></g><g transform="translate(7.195 30.896)"><g transform="translate(0.262 11.771)"><path class="am" d="M83.063,453.065a9.418,9.418,0,0,1-5.859,5.944l1.187-4.56c-7.134,1.513-12.506-.2-16.283-2.584l-.528,4.192c-1.549-1.4-2.169-4.7-2.392-6.408a20.737,20.737,0,0,1-4.106-4.943s-.2,15.366,16.962,18.068,22.436-15.985,22.436-15.985A50.593,50.593,0,0,1,83.063,453.065Z" transform="translate(-55.082 -444.706)"/><path class="an" d="M94.022,447.11c-1.991,4.818-8.129,15.988-21.666,13.857-12.565-1.978-15.824-10.741-16.667-15.3-.405-.6-.607-.965-.607-.965s-.2,15.366,16.962,18.068S94.48,446.788,94.48,446.788C94.326,446.9,94.174,447,94.022,447.11Z" transform="translate(-55.082 -444.706)"/><path class="cf" d="M94.022,447.11c-1.991,4.818-8.129,15.988-21.666,13.857-12.565-1.978-15.824-10.741-16.667-15.3-.405-.6-.607-.965-.607-.965s-.2,15.366,16.962,18.068S94.48,446.788,94.48,446.788C94.326,446.9,94.174,447,94.022,447.11Z" transform="translate(-55.082 -444.706)"/><g transform="translate(6.498 7.159)"><path class="an" d="M64.329,454.312,63.8,458.5l3.417-1.265.348-1.264A20.42,20.42,0,0,1,64.329,454.312Z" transform="translate(-63.801 -454.312)"/><path class="cg" d="M64.329,454.312,63.8,458.5l3.417-1.265.348-1.264A20.42,20.42,0,0,1,64.329,454.312Z" transform="translate(-63.801 -454.312)"/></g><g transform="translate(22.741 7.419)"><path class="an" d="M90.836,455.6a9.656,9.656,0,0,1-5.24,5.72l3.986-1.446s2.433-1.072,3.527-5.212v0Q91.949,455.182,90.836,455.6Z" transform="translate(-85.596 -454.661)"/><path class="ch" d="M90.836,455.6a9.656,9.656,0,0,1-5.24,5.72l3.986-1.446s2.433-1.072,3.527-5.212v0Q91.949,455.182,90.836,455.6Z" transform="translate(-85.596 -454.661)"/></g></g><path class="am" d="M54.748,434.666c.221,2.986,2.433,5.257,4.942,5.072s4.364-2.756,4.144-5.743-2.433-5.257-4.942-5.072S54.527,431.68,54.748,434.666Z" transform="translate(-54.73 -428.912)"/><g transform="translate(0.001 0.751)"><path class="an" d="M56.884,429.919a5.981,5.981,0,0,0-.97,3.8c.221,2.986,2.433,5.257,4.942,5.072a3.952,3.952,0,0,0,2.008-.739A4.237,4.237,0,0,1,59.691,440c-2.509.186-4.721-2.085-4.942-5.072A5.6,5.6,0,0,1,56.884,429.919Z" transform="translate(-54.731 -429.919)"/><path class="ci" d="M56.884,429.919a5.981,5.981,0,0,0-.97,3.8c.221,2.986,2.433,5.257,4.942,5.072a3.952,3.952,0,0,0,2.008-.739A4.237,4.237,0,0,1,59.691,440c-2.509.186-4.721-2.085-4.942-5.072A5.6,5.6,0,0,1,56.884,429.919Z" transform="translate(-54.731 -429.919)"/></g><g transform="translate(18.281 2.788)"><path class="am" d="M79.282,440.568a7.083,7.083,0,1,0,6.513-7.9A7.239,7.239,0,0,0,79.282,440.568Z" transform="translate(-79.26 -432.653)"/><g transform="translate(0 1.482)"><path class="an" d="M82.059,434.642a7.554,7.554,0,0,0-1.394,4.982,7.239,7.239,0,0,0,7.6,6.853A6.82,6.82,0,0,0,92,445.014a6.926,6.926,0,0,1-5.119,2.913,7.241,7.241,0,0,1-7.6-6.853A7.469,7.469,0,0,1,82.059,434.642Z" transform="translate(-79.26 -434.642)"/><path class="cj" d="M82.059,434.642a7.554,7.554,0,0,0-1.394,4.982,7.239,7.239,0,0,0,7.6,6.853A6.82,6.82,0,0,0,92,445.014a6.926,6.926,0,0,1-5.119,2.913,7.241,7.241,0,0,1-7.6-6.853A7.469,7.469,0,0,1,82.059,434.642Z" transform="translate(-79.26 -434.642)"/></g></g><g transform="translate(11.189 14.146)"><path class="am" d="M69.751,450.2c.089,1.2.907,2.123,1.828,2.055a1.981,1.981,0,0,0,1.507-2.3c-.089-1.2-.908-2.123-1.828-2.055A1.981,1.981,0,0,0,69.751,450.2Z" transform="translate(-69.743 -447.892)"/><g transform="translate(0.001 0.337)"><path class="an" d="M70.483,448.345a2.675,2.675,0,0,0-.16,1.136c.089,1.2.908,2.124,1.828,2.055a1.369,1.369,0,0,0,.775-.333,1.644,1.644,0,0,1-1.346,1.166c-.921.068-1.739-.853-1.828-2.055A2.334,2.334,0,0,1,70.483,448.345Z" transform="translate(-69.744 -448.345)"/><path class="ck" d="M70.483,448.345a2.675,2.675,0,0,0-.16,1.136c.089,1.2.908,2.124,1.828,2.055a1.369,1.369,0,0,0,.775-.333,1.644,1.644,0,0,1-1.346,1.166c-.921.068-1.739-.853-1.828-2.055A2.334,2.334,0,0,1,70.483,448.345Z" transform="translate(-69.744 -448.345)"/></g></g></g></g><g transform="translate(0.001)"><path class="cl" d="M121.457,440.675c-1.419,10.657-11.561,13.757-11.561,13.757a22.274,22.274,0,0,1-15.859,6.113c1.341-3.15,1.511-8.066-2.191-15.574-8.369-16.973,9.671-31.543,9.671-31.543-.273-3.691,3.723-5.483,4.822-5.9,7.545,3.932,13.907,10.54,16.159,17.68C126.2,436.927,121.457,440.675,121.457,440.675Z" transform="translate(-56.426 -392.568)"/><path class="cm" d="M47.752,417.42C55.945,400.783,67.793,400.7,67.793,400.7a11.386,11.386,0,0,1,4.34-2.64c2.794-7.4,9.989-10.906,12.425-10.589a2.811,2.811,0,0,1,2.573,3.106c.41,3-3.053,2.786-3.053,2.786-3.632-.267-5.112,2.153-5.666,4.773a8.078,8.078,0,0,1,1.362.578c12.912-.651,27.678,9.651,31.376,21.373s-1.041,15.47-1.041,15.47c-1.419,10.657-11.561,13.757-11.561,13.757a22.663,22.663,0,0,1-20.837,5.48C59.217,458.838,52.8,444.606,52.8,444.606S39.557,434.056,47.752,417.42Z" transform="translate(-45.077 -387.456)"/></g></g><g transform="translate(3127.386 -12098.422)"><g transform="translate(0 11.395)"><path class="b" d="M536.886,350.43s-17.065-3.766-34.3,17.478-1.638,40.757-1.638,40.757,4.562,22.57,32.484,22.818a33.431,33.431,0,0,0,31.765-1.057s15.6-1.137,21.133-16c0,0,8.043-3.839,6.565-21.91s-19.344-37.724-38.127-41.017C554.768,351.5,547.151,344.4,536.886,350.43Z" transform="translate(-494.478 -348.001)"/><g transform="translate(0.001)"><path class="cn" d="M502.588,368.65c-17.234,21.244-1.638,40.757-1.638,40.757-1.5-45.438,40.359-49.587,40.359-49.587s2.817-1.313,2.574-2.9c-.771-5.054-7-5.744-7-5.744S519.821,347.406,502.588,368.65Z" transform="translate(-494.479 -348.743)"/><path class="co" d="M547.772,365.032l-4.267-2.168s-41.858,4.149-40.359,49.587c0,0,4.562,22.57,32.484,22.818C535.631,435.269,525.717,392.917,547.772,365.032Z" transform="translate(-496.677 -351.787)"/><g transform="translate(15.87 12.439)"><path class="cp" d="M528.425,456.924c.426.156.859.306,1.3.449C529.284,457.23,528.851,457.08,528.425,456.924Z" transform="translate(-518.996 -388.185)"/><path class="cq" d="M521.471,453.65c.338.2.683.4,1.037.585C522.154,454.045,521.809,453.849,521.471,453.65Z" transform="translate(-517.224 -387.351)"/><path class="cr" d="M522.957,454.488c.369.2.749.388,1.136.575Q523.513,454.783,522.957,454.488Z" transform="translate(-517.603 -387.565)"/><path class="cs" d="M519.871,452.658q.5.328,1.027.642Q520.373,452.985,519.871,452.658Z" transform="translate(-516.817 -387.099)"/><path class="ct" d="M536.8,459.144q.752.131,1.535.237Q537.555,459.275,536.8,459.144Z" transform="translate(-521.13 -388.751)"/><path class="cu" d="M530.353,457.581c.411.13.833.253,1.261.371Q530.972,457.774,530.353,457.581Z" transform="translate(-519.487 -388.353)"/><path class="cv" d="M532.427,458.183q.692.184,1.411.347Q533.119,458.368,532.427,458.183Z" transform="translate(-520.015 -388.506)"/><path class="cw" d="M524.78,455.4q1.172.553,2.453,1.037Q525.951,455.957,524.78,455.4Z" transform="translate(-518.067 -387.797)"/><path class="cx" d="M518.478,451.7q.452.324.926.638Q518.93,452.026,518.478,451.7Z" transform="translate(-516.462 -386.855)"/><path class="cy" d="M559.972,364.691l-1.843.806c-22.055,27.885-12.141,70.237-12.141,70.237a33.652,33.652,0,0,0,25.581,1.792l6.184-2.848S590.969,395.006,559.972,364.691Z" transform="translate(-522.904 -364.691)"/><path class="cz" d="M546.139,460c-.605-.005-1.2-.025-1.779-.051C544.944,459.974,545.534,459.994,546.139,460Z" transform="translate(-523.055 -388.956)"/><path class="da" d="M543.248,459.883c-.569-.03-1.13-.067-1.678-.116C542.118,459.816,542.679,459.853,543.248,459.883Z" transform="translate(-522.344 -388.91)"/><path class="db" d="M540.8,459.684q-.75-.07-1.474-.164C539.8,459.582,540.3,459.638,540.8,459.684Z" transform="translate(-521.771 -388.847)"/><path class="dc" d="M517.1,450.671q.453.355.93.7Q517.557,451.026,517.1,450.671Z" transform="translate(-516.112 -386.592)"/><path class="dd" d="M515.773,449.579q.425.366.876.721Q516.2,449.944,515.773,449.579Z" transform="translate(-515.773 -386.314)"/><path class="de" d="M534.662,458.722q.649.142,1.324.264Q535.311,458.864,534.662,458.722Z" transform="translate(-520.585 -388.643)"/></g><path class="df" d="M565.142,362.332l.275,1.758c31,30.315,17.781,69.987,17.781,69.987s15.6-1.137,21.133-16C604.331,418.077,606.55,374.5,565.142,362.332Z" transform="translate(-512.479 -351.651)"/><path class="dg" d="M612.023,393.713c-1.479-18.071-19.344-37.724-38.127-41.017,0,0-4.9.139-4.273,8.268l0,.007c37.922,13.472,35.83,54.652,35.83,54.652S613.5,411.783,612.023,393.713Z" transform="translate(-513.607 -349.197)"/><path class="dh" d="M558.376,356.174a1.34,1.34,0,0,1-.036.553l6.607,1.158c.212-6.265,4.316-6.385,4.316-6.385s-7.618-7.1-17.882-1.07C551.381,350.43,557.6,351.119,558.376,356.174Z" transform="translate(-508.974 -348)"/></g><path class="di" d="M520.313,375.73A56.168,56.168,0,0,1,547.2,364.465a5.946,5.946,0,0,0,2.288,1.09s-8.918,14.677-10.353,31.431c0,0,4.187-22.187,13.933-31.148,0,0,16.451,9.687,20.964,38.441,0,0-1.265-23.2-16.625-39.143,0,0,17.888,4.37,29.536,24.854,0,0-5.78-18.8-29.543-28.642l-9.848.746S531.752,363.253,520.313,375.73Z" transform="translate(-501.059 -351.4)"/><g transform="translate(1.107 2.341)"><path class="dj" d="M520.313,376.8s11.709-9.623,26.883-11.266l2.288,1.09s-9.022,17.43-10.353,31.431c0,0-1.239-19.954-7.317-17.062S520.313,376.8,520.313,376.8Z" transform="translate(-502.166 -354.807)"/><path class="dk" d="M546.51,395.331s3.2-17.372,13.228-27.959c0,0,15.946,7.971,21.028,38.972,0,0-5.994-21.45-14.752-27.546S546.51,395.331,546.51,395.331Z" transform="translate(-508.839 -355.276)"/><path class="dl" d="M545.05,364.314a27.025,27.025,0,0,0,3.134-.924S546.949,363.69,545.05,364.314Z" transform="translate(-508.468 -354.262)"/><path class="dm" d="M532.546,361.194c-2.547.6-6.133,1.07-8.762-.066-4.527-1.956,7.326-9.987,7.326-9.987-6.5.726-17.287,4.182-28.145,17.566a38.871,38.871,0,0,0-5.307,8.481l-1.689,4.64c0,.007,0,.015-.006.022.1-.165,9.4-15.581,15.426-17.991,6.063-2.422,2.72,9.27,2.72,9.27C518.108,366.651,527.593,362.82,532.546,361.194Z" transform="translate(-495.964 -351.142)"/><path class="dn" d="M589.975,408.424s-.923-13.861-7.063-25.341c0,0,10.641,12.069,11.416,7.645s-5.461-13.106-5.461-13.106,12.485,7.3,17.67,26.485C606.538,404.106,597.1,387.9,589.975,408.424Z" transform="translate(-518.112 -357.887)"/><path class="do" d="M619.11,397.053c-.92-11.244-8.185-23.1-18.067-31.245.165.186,5.56,6.284,7.179,11.55,1.644,5.348-10.832-.874-10.832-.874,7.419,6.693,11.332,19.834,11.332,19.834s-.654-9.978,4.392-8.577,3.165,27.214,3.165,27.217C618.146,411.764,619.863,406.258,619.11,397.053Z" transform="translate(-521.8 -354.878)"/></g><g transform="translate(9.908 19.26)"><path class="dp" d="M546.2,422.516s14.953-4.332,20.577-6.96c0,0-12.239,26.25-36.643,19.218-25.573-7.368-23.018-26.985-21.441-33.446,0,0,1.3,16.4,7.266,21.5s24.725,8.55,32.11,5.2S546.2,422.516,546.2,422.516Z" transform="translate(-507.772 -380.844)"/><path class="dq" d="M519.24,382.429l-2.146-8.586s-6.52,7.247-4.859,15.937a11.453,11.453,0,0,0,12.832,9.508l-3.249-8.261s-4.732,2-6.468-2.819S519.24,382.429,519.24,382.429Z" transform="translate(-508.84 -373.843)"/><path class="dr" d="M549.917,403.692l-11.488,3.461s5.409,7.735,17.579,4.706c11.7-2.912,13.965-11.021,13.975-15.423l-8.9,10.356-9.565,2.655-4.181-1.185Z" transform="translate(-515.581 -379.598)"/></g><path class="ds" d="M536.886,350.43s-17.065-3.766-34.3,17.478-1.638,40.757-1.638,40.757,4.562,22.57,32.484,22.818a33.431,33.431,0,0,0,31.765-1.057s15.6-1.137,21.133-16c0,0,8.043-3.839,6.565-21.91s-19.344-37.724-38.127-41.017C554.768,351.5,547.151,344.4,536.886,350.43Z" transform="translate(-494.478 -348.001)"/></g><g transform="translate(45.893 0.001)"><path class="aj" d="M556.807,349.988s-1.8,3.3.186,5.2c0,0-.506,1.783,4.267,2.168,0,0,4.106,1.242,5.312-2.324,0,0,.984-17.029,11.825-13.709,0,0,4.91,1.441,5.3-3.007A4.146,4.146,0,0,0,581.017,333C577.017,331.524,561.8,335.5,556.807,349.988Z" transform="translate(-556.057 -332.712)"/><path class="dt" d="M568.35,356.342s.984-17.029,11.825-13.709c0,0,4.91,1.442,5.3-3.007a4.689,4.689,0,0,0,.2-1.143s-21.4-6.058-22.64,20.183C563.038,358.668,567.144,359.909,568.35,356.342Z" transform="translate(-557.835 -334.028)"/><path class="du" d="M556.807,349.988s-1.8,3.3.186,5.2c0,0-.506,1.783,4.267,2.168,0,0,4.106,1.242,5.312-2.324,0,0,.984-17.029,11.825-13.709,0,0,4.91,1.441,5.3-3.007A4.146,4.146,0,0,0,581.017,333C577.017,331.524,561.8,335.5,556.807,349.988Z" transform="translate(-556.057 -332.712)"/></g><g transform="translate(10.318 32.097)"><g transform="translate(23.988 15.397)"><path class="am" d="M570.512,396.438l-11.622,4.2a4.489,4.489,0,1,1-8.442,3.053l-9.937,3.593s4.451,7.378,17.576,3.3C570.5,406.723,570.512,396.438,570.512,396.438Z" transform="translate(-540.51 -396.438)"/><path class="an" d="M555.672,408.948l0,0a4.494,4.494,0,0,1-2.79-2.773l-2.807,1.015Z" transform="translate(-542.947 -398.918)"/><path class="an" d="M570.512,396.438l-2.62.947c-.876,3.019-3.41,7.788-10.751,10.07-7.474,2.324-11.829.529-14.026-1.111l-2.6.942s4.451,7.378,17.576,3.3C570.5,406.723,570.512,396.438,570.512,396.438Z" transform="translate(-540.51 -396.438)"/><path class="dv" d="M570.512,396.438l-2.62.947c-.876,3.019-3.41,7.788-10.751,10.07-7.474,2.324-11.829.529-14.026-1.111l-2.6.942s4.451,7.378,17.576,3.3C570.5,406.723,570.512,396.438,570.512,396.438Z" transform="translate(-540.51 -396.438)"/></g><g transform="translate(3.382)"><path class="am" d="M520.1,391.612a4.492,4.492,0,0,1-.633-8.69l-2.141-7.143s-6.281,7.482-3.945,15.507,11.071,8.265,11.071,8.265l-2.407-8.03A4.47,4.47,0,0,1,520.1,391.612Z" transform="translate(-512.861 -375.778)"/><path class="an" d="M515.583,390.144c-1.473-5.057.743-9.88,2.316-12.456l-.572-1.909s-6.281,7.482-3.945,15.507,11.071,8.265,11.071,8.265l-.609-2.031A10.624,10.624,0,0,1,515.583,390.144Z" transform="translate(-512.861 -375.778)"/><path class="dw" d="M515.583,390.144c-1.473-5.057.743-9.88,2.316-12.456l-.572-1.909s-6.281,7.482-3.945,15.507,11.071,8.265,11.071,8.265l-.609-2.031A10.624,10.624,0,0,1,515.583,390.144Z" transform="translate(-512.861 -375.778)"/></g><g transform="translate(0 19.042)"><path class="am" d="M546.338,422.516a13.891,13.891,0,0,1-10.373,6.631l3.2-6.171c-10.756-.161-17.922-4.377-22.573-9.049l-2.133,5.856c-1.77-2.522-1.581-7.464-1.342-10a30.543,30.543,0,0,1-4.285-8.454s-5.325,22.034,18.479,31.542,37.5-15.643,37.5-15.643A74.7,74.7,0,0,1,546.338,422.516Z" transform="translate(-508.323 -401.329)"/><g transform="translate(0)"><path class="an" d="M564.05,417.54c-4.441,6.277-16.927,20.333-35.7,12.834-17.424-6.96-19.241-20.631-18.963-27.459-.388-.989-.556-1.587-.556-1.587s-5.325,22.034,18.479,31.542,37.5-15.643,37.5-15.643C564.558,417.335,564.3,417.437,564.05,417.54Z" transform="translate(-508.323 -401.329)"/><path class="dx" d="M564.05,417.54c-4.441,6.277-16.927,20.333-35.7,12.834-17.424-6.96-19.241-20.631-18.963-27.459-.388-.989-.556-1.587-.556-1.587s-5.325,22.034,18.479,31.542,37.5-15.643,37.5-15.643C564.558,417.335,564.3,417.437,564.05,417.54Z" transform="translate(-508.323 -401.329)"/><g transform="translate(6.136 12.598)"><path class="an" d="M518.69,418.233l-2.133,5.856,5.329-.7.915-1.7A30.13,30.13,0,0,1,518.69,418.233Z" transform="translate(-516.557 -418.233)"/><path class="dy" d="M518.69,418.233l-2.133,5.856,5.329-.7.915-1.7A30.13,30.13,0,0,1,518.69,418.233Z" transform="translate(-516.557 -418.233)"/></g><g transform="translate(28.604 20.579)"><path class="an" d="M556.115,429.55a14.236,14.236,0,0,1-9.411,6.51l6.207-.774s3.851-.745,6.779-6.341l0,0Q557.852,429.312,556.115,429.55Z" transform="translate(-546.704 -428.942)"/><path class="dz" d="M556.115,429.55a14.236,14.236,0,0,1-9.411,6.51l6.207-.774s3.851-.745,6.779-6.341l0,0Q557.852,429.312,556.115,429.55Z" transform="translate(-546.704 -428.942)"/></g></g></g></g><path class="ea" d="M592.9,388.621c-1.479-18.071-19.344-37.724-38.127-41.017A11.933,11.933,0,0,0,553,346.326c1.655-3.587,4.577-6.582,9.712-5.01,0,0,4.91,1.441,5.3-3.007A4.147,4.147,0,0,0,565.332,333c-3.4-1.254-14.9,1.435-21.339,11.16a16.781,16.781,0,0,0-7.107,2.375s-17.065-3.766-34.3,17.478-1.638,40.757-1.638,40.757,4.562,22.57,32.484,22.818A33.431,33.431,0,0,0,565.2,426.53s15.6-1.137,21.133-16C586.331,410.531,594.374,406.693,592.9,388.621Z" transform="translate(-494.478 -332.711)"/></g><g transform="translate(2922.732 -12101.478)"><g transform="translate(0 13.149)"><path class="b" d="M174.123,349.471s17.828-2.483,33.8,20.727-1.622,41.982-1.622,41.982-6.514,22.8-35.2,20.8c0,0-16.377,7.607-32.53-3.661,0,0-15.927-2.433-20.4-18.142,0,0-7.948-4.594-4.964-23.029s22.92-37.166,42.473-39.024C155.675,349.119,164.073,342.446,174.123,349.471Z" transform="translate(-112.532 -346.254)"/><path class="eb" d="M226.348,371.271c15.973,23.21-1.622,41.982-1.622,41.982,5.224-46.533-37.419-54.186-37.419-54.186s-2.786-1.577-2.408-3.191c1.2-5.127,7.649-5.33,7.649-5.33S210.375,348.06,226.348,371.271Z" transform="translate(-130.956 -347.328)"/><path class="ec" d="M182.028,363.884l4.557-1.88S229.227,369.658,224,416.19c0,0-6.514,22.8-35.2,20.8C188.8,436.987,202.413,394.3,182.028,363.884Z" transform="translate(-130.234 -350.266)"/><g transform="translate(24.568 12.64)"><path class="ed" d="M209.708,460.924c-.45.125-.908.245-1.376.355C208.8,461.169,209.258,461.049,209.708,460.924Z" transform="translate(-161.502 -388.103)"/><path class="ee" d="M217.2,458.126c-.363.177-.733.35-1.112.517C216.471,458.476,216.841,458.3,217.2,458.126Z" transform="translate(-163.479 -387.391)"/><path class="ef" d="M215.575,458.866c-.4.173-.8.338-1.213.5C214.775,459.2,215.18,459.039,215.575,458.866Z" transform="translate(-163.038 -387.579)"/><path class="eg" d="M218.928,457.237q-.54.3-1.107.576Q218.388,457.533,218.928,457.237Z" transform="translate(-163.919 -387.164)"/><path class="eh" d="M200.852,462.524q-.783.074-1.595.119Q200.067,462.6,200.852,462.524Z" transform="translate(-159.191 -388.511)"/><path class="ei" d="M207.692,461.442c-.433.1-.876.192-1.325.279C206.816,461.634,207.258,461.543,207.692,461.442Z" transform="translate(-161.002 -388.235)"/><path class="ej" d="M205.462,461.893q-.726.133-1.478.242Q204.737,462.027,205.462,461.893Z" transform="translate(-160.395 -388.35)"/><path class="ek" d="M213.154,459.656q-1.248.474-2.6.866Q211.907,460.132,213.154,459.656Z" transform="translate(-162.068 -387.78)"/><path class="el" d="M220.472,456.368q-.49.3-1,.58Q219.982,456.665,220.472,456.368Z" transform="translate(-164.339 -386.943)"/><path class="em" d="M170.9,363.214l1.827.978c20.385,30.42,6.772,73.1,6.772,73.1a34.661,34.661,0,0,1-26.411-.235l-6.119-3.426S136.61,391.829,170.9,363.214Z" transform="translate(-145.496 -363.214)"/><path class="en" d="M191.114,462.615c.622.043,1.23.072,1.83.092C192.344,462.686,191.736,462.658,191.114,462.615Z" transform="translate(-157.116 -388.534)"/><path class="eo" d="M194.126,462.756c.587.016,1.166.022,1.732.017C195.292,462.778,194.713,462.771,194.126,462.756Z" transform="translate(-157.884 -388.57)"/><path class="ep" d="M196.73,462.755c.517-.007,1.026-.025,1.527-.048Q197.506,462.744,196.73,462.755Z" transform="translate(-158.547 -388.558)"/><path class="eq" d="M221.963,455.422q-.494.329-1.012.645Q221.47,455.75,221.963,455.422Z" transform="translate(-164.717 -386.702)"/><path class="er" d="M223.436,454.408c-.311.227-.631.449-.958.67C222.805,454.858,223.126,454.635,223.436,454.408Z" transform="translate(-165.106 -386.444)"/><path class="es" d="M203.157,462.265q-.679.093-1.38.164Q202.478,462.357,203.157,462.265Z" transform="translate(-159.833 -388.445)"/></g><path class="et" d="M164.849,360.822l-.425,1.783c-34.285,28.614-23.931,70.419-23.931,70.419s-15.927-2.433-20.4-18.142C120.092,414.883,121.346,369.955,164.849,360.822Z" transform="translate(-114.457 -349.965)"/><path class="eu" d="M113.2,389.122c2.983-18.435,22.92-37.166,42.473-39.024,0,0,5.016.539,3.717,8.836l-.005.007c-40.029,10.758-41.22,53.21-41.22,53.21S110.219,407.557,113.2,389.122Z" transform="translate(-112.531 -347.233)"/><path class="ev" d="M181.22,354.8a1.391,1.391,0,0,0-.008.571l-6.877.654c.29-6.45-3.914-6.906-3.914-6.906s8.4-6.673,18.448.351C188.868,349.471,182.422,349.673,181.22,354.8Z" transform="translate(-127.277 -346.254)"/><path class="ew" d="M200.914,377.186a57.852,57.852,0,0,0-26.69-13.747,6.122,6.122,0,0,1-2.438.933s7.966,15.793,8.081,33.112c0,0-2.5-23.12-11.781-33.112,0,0-17.677,8.612-24.643,37.771,0,0,3.179-23.718,20.244-38.844,0,0-18.721,3.036-32.342,23.125,0,0,7.459-18.832,32.656-27.013l10.051,1.564S190.18,363.448,200.914,377.186Z" transform="translate(-117.324 -349.606)"/><g transform="translate(0 3.625)"><path class="ex" d="M214.736,378.563s-11.242-10.83-26.69-13.747l-2.438.933s7.851,18.629,8.081,33.112c0,0,2.89-20.388,8.9-16.925S214.736,378.563,214.736,378.563Z" transform="translate(-131.146 -354.607)"/><path class="ey" d="M183.5,395.85s-1.881-18.1-11.315-29.78c0,0-17.02,6.892-24.751,38.311,0,0,7.892-21.538,17.38-27.088S183.5,395.85,183.5,395.85Z" transform="translate(-121.422 -354.927)"/><g transform="translate(62.486)"><path class="ez" d="M199.517,364.4a27.986,27.986,0,0,1-3.143-1.2S197.618,363.605,199.517,364.4Z" transform="translate(-196.374 -354.195)"/><path class="fa" d="M200.591,361.323c2.566.819,6.21,1.6,9,.643,4.806-1.64-6.713-10.847-6.713-10.848,6.614,1.272,17.411,5.7,27.474,20.318a40.049,40.049,0,0,1,4.762,9.139l1.357,4.9,0,.023c-.089-.177-8.384-16.76-14.38-19.723-6.029-2.978-3.545,9.3-3.545,9.3C214.974,368.1,205.544,363.394,200.591,361.323Z" transform="translate(-197.448 -351.118)"/></g><path class="fb" d="M141.887,405.97s2.071-14.156,9.307-25.447c0,0-11.9,11.529-12.342,6.924s6.669-13.015,6.669-13.015-13.411,6.483-20.291,25.762C125.23,400.194,136.238,384.325,141.887,405.97Z" transform="translate(-115.766 -357.057)"/><path class="fc" d="M113.2,392c1.856-11.47,10.277-23.053,21.084-30.617-.185.177-6.219,6-8.308,11.277-2.122,5.359,11.193-.019,11.193-.019-8.161,6.271-13.243,19.446-13.243,19.446s1.481-10.192-3.814-9.163-5.456,27.686-5.456,27.689C113,407.18,111.682,401.386,113.2,392Z" transform="translate(-112.531 -353.732)"/></g><path class="fd" d="M174.123,349.471s17.828-2.483,33.8,20.727-1.622,41.982-1.622,41.982-6.514,22.8-35.2,20.8c0,0-16.377,7.607-32.53-3.661,0,0-15.927-2.433-20.4-18.142,0,0-7.948-4.594-4.964-23.029s22.92-37.166,42.473-39.024C155.675,349.119,164.073,342.446,174.123,349.471Z" transform="translate(-112.532 -346.254)"/><g transform="translate(30.201 28.43)"><path class="fe" d="M173.619,424.129s-15-5.66-20.564-8.815c0,0,10.438,27.945,36.065,22.7,26.855-5.493,25.822-25.841,24.727-32.6,0,0-2.66,16.738-9.2,21.482s-26.08,6.775-33.392,2.735S173.619,424.129,173.619,424.129Z" transform="translate(-153.055 -389.755)"/><path class="ff" d="M214.6,384.4l11.252,4.677-2.821,8.348-4.717-2.332-3.478,8.768-5.753-3.6Z" transform="translate(-167.326 -384.402)"/><path class="fg" d="M174.456,394.186,164.8,404.921l6.855,5.518,3.769-4.765,7.547,6.356,5.379-6.9Z" transform="translate(-156.048 -386.894)"/><path class="fh" d="M202.126,414.74,199,422.694l9.579-3.363Z" transform="translate(-164.757 -392.13)"/></g></g><g transform="translate(30.182)"><path class="aj" d="M179.811,348.178s1.585,3.533-.613,5.32c0,0,.375,1.871-4.557,1.88,0,0-4.317.942-5.266-2.818,0,0,.37-17.565-11.031-15.034,0,0-5.159,1.082-5.2-3.518a4.271,4.271,0,0,1,3.185-5.236C160.556,327.582,175.86,332.9,179.811,348.178Z" transform="translate(-153.03 -328.611)"/><path class="fi" d="M169.375,353.9s.37-17.565-11.031-15.034c0,0-5.159,1.082-5.2-3.518a4.871,4.871,0,0,1-.112-1.19s22.459-4.485,21.609,22.56C174.641,356.72,170.325,357.663,169.375,353.9Z" transform="translate(-153.03 -329.954)"/><path class="fj" d="M179.811,348.178s1.585,3.533-.613,5.32c0,0,.375,1.871-4.557,1.88,0,0-4.317.942-5.266-2.818,0,0,.37-17.565-11.031-15.034,0,0-5.159,1.082-5.2-3.518a4.271,4.271,0,0,1,3.185-5.236C160.556,327.582,175.86,332.9,179.811,348.178Z" transform="translate(-153.03 -328.611)"/></g><g transform="translate(32.222 41.579)"><g transform="translate(0 15.66)"><path class="am" d="M174.309,424.129a14.306,14.306,0,0,0,10.114,7.649l-2.787-6.595c11.057.707,18.757-3.041,23.911-7.461l1.715,6.186c2.022-2.446,2.228-7.535,2.189-10.159a31.47,31.47,0,0,0,5.086-8.333s3.681,23.056-21.531,30.888-37.24-19.1-37.24-19.1A76.935,76.935,0,0,0,174.309,424.129Z" transform="translate(-155.766 -405.415)"/><path class="an" d="M156.526,417.583c4.051,6.806,15.733,22.249,35.615,16.073,18.455-5.733,21.428-19.623,21.7-26.656.479-.984.7-1.584.7-1.584s3.681,23.056-21.531,30.888-37.24-19.1-37.24-19.1C156.021,417.331,156.274,417.456,156.526,417.583Z" transform="translate(-155.766 -405.415)"/><path class="fk" d="M156.526,417.583c4.051,6.806,15.733,22.249,35.615,16.073,18.455-5.733,21.428-19.623,21.7-26.656.479-.984.7-1.584.7-1.584s3.681,23.056-21.531,30.888-37.24-19.1-37.24-19.1C156.021,417.331,156.274,417.456,156.526,417.583Z" transform="translate(-155.766 -405.415)"/><g transform="translate(45.281 12.306)"><path class="an" d="M221.025,421.927l1.715,6.186-5.414-1.151-.8-1.824A31.067,31.067,0,0,0,221.025,421.927Z" transform="translate(-216.524 -421.927)"/><path class="fl" d="M221.025,421.927l1.715,6.186-5.414-1.151-.8-1.824A31.067,31.067,0,0,0,221.025,421.927Z" transform="translate(-216.524 -421.927)"/></g><g transform="translate(14.921 17.8)"><path class="an" d="M179.409,430.213a14.667,14.667,0,0,0,9.135,7.448l-6.309-1.3s-3.893-1.077-6.447-7.06v0Q177.643,429.827,179.409,430.213Z" transform="translate(-175.787 -429.299)"/><path class="fm" d="M179.409,430.213a14.667,14.667,0,0,0,9.135,7.448l-6.309-1.3s-3.893-1.077-6.447-7.06v0Q177.643,429.827,179.409,430.213Z" transform="translate(-175.787 -429.299)"/></g></g><g transform="translate(39.733)"><path class="am" d="M214.6,384.4l10.3,5.124-2.409,6.619-4.794-2.385-3.158,9.082-5.456-2.582Z" transform="translate(-209.08 -384.402)"/><g transform="translate(1.675 3.433)"><g transform="translate(8.164)"><path class="an" d="M224.861,389.009l-2.579,6.534,3.57,1.776,2.409-6.619Z" transform="translate(-222.282 -389.009)"/><path class="fn" d="M224.861,389.009l-2.579,6.534,3.57,1.776,2.409-6.619Z" transform="translate(-222.282 -389.009)"/></g><g transform="translate(0 4.386)"><path class="an" d="M218.267,396.433l-3.407-1.539-3.533,8.831,3.782,1.79Z" transform="translate(-211.327 -394.894)"/><path class="fo" d="M218.267,396.433l-3.407-1.539-3.533,8.831,3.782,1.79Z" transform="translate(-211.327 -394.894)"/></g></g></g><g transform="translate(7.799 7.292)"><path class="am" d="M174.819,394.186l-8.589,10.553,5.548,4.516,4-4.911,7.458,6.282,4.609-5.472Z" transform="translate(-166.23 -394.186)"/><g transform="translate(1.916 7.24)"><g transform="translate(12.249 1.144)"><path class="an" d="M189.614,405.435l-4.377,5.666,2.837,2.39,4.609-5.472Z" transform="translate(-185.237 -405.435)"/><path class="fp" d="M189.614,405.435l-4.377,5.666,2.837,2.39,4.609-5.472Z" transform="translate(-185.237 -405.435)"/></g><path class="an" d="M176.43,406.818l-3.587-2.918-4.042,4.873,3.632,2.956Z" transform="translate(-168.801 -403.9)"/><path class="fq" d="M176.43,406.818l-3.587-2.918-4.042,4.873,3.632,2.956Z" transform="translate(-168.801 -403.9)"/></g></g><g transform="translate(33.119 22.61)"><path class="am" d="M207.726,419.3l-7.521,2.406,2.229-6.969Z" transform="translate(-200.205 -414.74)"/><g transform="translate(0 2.364)"><path class="an" d="M205.176,417.912l-3.856,1.12-1.115,3.485,7.521-2.406Z" transform="translate(-200.205 -417.912)"/><path class="fr" d="M205.176,417.912l-3.856,1.12-1.115,3.485,7.521-2.406Z" transform="translate(-200.205 -417.912)"/></g></g></g></g><path class="fs" d="M207.924,365.7c-15.973-23.21-33.8-20.727-33.8-20.727a17.274,17.274,0,0,0-7.1-3.015c-5.825-10.507-17.413-14.2-21.005-13.189a4.271,4.271,0,0,0-3.185,5.236c.042,4.6,5.2,3.518,5.2,3.518,5.4-1.2,8.158,2.114,9.566,5.931a12.262,12.262,0,0,0-1.921,1.169c-19.554,1.858-39.49,20.589-42.473,39.024s4.964,23.029,4.964,23.029c4.475,15.71,20.4,18.142,20.4,18.142,16.153,11.268,32.53,3.661,32.53,3.661,28.69,2.009,35.2-20.8,35.2-20.8S223.9,388.914,207.924,365.7Z" transform="translate(2810.2 -12430.089)"/></g></svg>